M48
; DRILL file {KiCad 8.0.6} date 2026-04-13T12:27:48+0100
; FORMAT={-:-/ absolute / metric / decimal}
; #@! TF.CreationDate,2026-04-13T12:27:48+01:00
; #@! TF.GenerationSoftware,Kicad,Pcbnew,8.0.6
; #@! TF.FileFunction,Plated,1,2,PTH
FMAT,2
METRIC
; #@! TA.AperFunction,Plated,PTH,ComponentDrill
T1C0.800
; #@! TA.AperFunction,Plated,PTH,ViaDrill
T2C1.000
; #@! TA.AperFunction,Plated,PTH,ComponentDrill
T3C1.000
; #@! TA.AperFunction,Plated,PTH,ComponentDrill
T4C1.190
%
G90
G05
T1
X149.19Y-79.0
X149.19Y-87.0
X156.81Y-79.0
X156.81Y-87.0
T2
X111.0Y-59.0
X113.46Y-41.0
X116.0Y-55.0
X116.0Y-60.0
X121.0Y-71.0
X126.0Y-39.0
X138.0Y-71.0
X155.0Y-59.0
T3
X103.3Y-37.0
X105.84Y-37.0
X105.84Y-67.0
X105.84Y-79.7
X108.38Y-37.0
X108.38Y-51.0
X108.38Y-67.0
X108.38Y-79.7
X110.92Y-37.0
X110.92Y-51.0
X110.92Y-67.0
X110.92Y-79.7
X113.46Y-37.0
X113.46Y-51.0
X113.46Y-67.0
X113.46Y-79.7
X116.0Y-37.0
X116.0Y-51.0
X116.0Y-67.0
X116.0Y-79.7
X118.54Y-37.0
X118.54Y-51.0
X118.54Y-67.0
X118.54Y-79.7
X132.0Y-36.84
X132.0Y-39.38
X132.0Y-41.92
X132.0Y-44.46
X132.0Y-47.0
X132.0Y-49.54
X132.0Y-52.08
X132.0Y-54.62
X132.0Y-57.16
X132.0Y-59.7
X132.0Y-62.24
X132.0Y-64.78
X132.0Y-67.32
X147.24Y-36.84
X147.24Y-39.38
X147.24Y-41.92
X147.24Y-44.46
X147.24Y-47.0
X147.24Y-49.54
X147.24Y-52.08
X147.24Y-54.62
X147.24Y-57.16
X147.24Y-59.7
X147.24Y-62.24
X147.24Y-64.78
X147.24Y-67.32
X157.0Y-47.0
T4
X138.98Y-79.19
X138.98Y-81.73
X138.98Y-84.27
X138.98Y-86.81
M30
